<?xml version="1.0" standalone="no"?>
<!DOCTYPE svg PUBLIC "-//W3C//DTD SVG 20010904//EN"
 "http://www.w3.org/TR/2001/REC-SVG-20010904/DTD/svg10.dtd">
<svg version="1.0" xmlns="http://www.w3.org/2000/svg"
 width="612.000000pt" height="758.000000pt" viewBox="0 0 612.000000 758.000000"
 preserveAspectRatio="xMidYMid meet">

<g transform="translate(0.000000,758.000000) scale(0.100000,-0.100000)"
fill="#000000" stroke="none">
<path d="M4401 6763 c-7 -21 -42 -113 -78 -205 l-65 -167 34 -29 c18 -16 75
-66 127 -110 107 -91 93 -87 326 -98 l130 -6 29 78 c16 44 51 135 78 203 26
68 48 126 48 127 0 8 -248 217 -265 224 -11 4 -94 10 -185 14 l-166 7 -13 -38z"/>
<path d="M685 5839 c-44 -10 -89 -21 -101 -24 -18 -4 -121 -119 -155 -172 -10
-17 -1 -37 62 -147 l74 -127 37 5 c20 4 76 15 125 26 l88 21 70 87 c39 47 71
89 73 93 2 4 -31 63 -73 133 -86 142 -74 136 -200 105z"/>
<path d="M3030 5529 c-70 -7 -100 -16 -100 -30 0 -4 -20 -20 -45 -34 -24 -15
-69 -53 -99 -86 -54 -58 -57 -60 -93 -53 -21 3 -53 15 -70 26 -38 23 -76 20
-81 -5 -6 -28 36 -131 80 -199 26 -40 36 -64 29 -71 -5 -7 -11 -25 -13 -42 -2
-22 -9 -31 -25 -33 -28 -4 -31 -38 -5 -45 16 -4 16 -5 0 -6 -14 -1 -18 -10
-18 -35 0 -28 4 -35 23 -38 18 -2 23 -10 25 -45 3 -43 4 -43 41 -43 38 0 39 0
46 -47 4 -26 15 -70 26 -98 21 -56 68 -120 69 -94 0 9 -6 22 -14 28 -19 16
-55 102 -66 159 -9 47 4 207 20 232 6 9 12 9 30 0 17 -9 62 -10 170 -5 116 6
174 3 277 -11 130 -17 130 -17 172 3 55 27 56 25 56 -137 0 -109 -3 -131 -23
-175 -13 -27 -33 -60 -44 -72 -23 -25 -18 -44 6 -24 23 19 57 96 75 169 l17
67 42 3 c40 3 42 5 48 43 4 23 12 39 20 39 22 0 18 67 -3 73 -17 4 -17 5 0 6
13 1 17 7 15 24 -2 12 -8 21 -15 20 -6 -1 -13 16 -17 37 -5 30 -11 40 -25 40
-15 0 -19 10 -23 65 -4 40 -12 70 -22 80 -9 9 -19 34 -22 55 -8 50 -78 139
-139 176 -26 16 -58 39 -70 52 -22 22 -32 24 -160 35 -16 2 -59 0 -95 -4z
m267 -103 c15 -8 39 -25 53 -37 21 -17 21 -20 5 -14 -11 4 -51 13 -90 22 -87
18 -168 11 -323 -28 -63 -16 -117 -29 -120 -29 -11 0 34 43 74 70 49 34 82 39
246 35 90 -3 134 -8 155 -19z m172 -220 c8 -10 9 -16 1 -21 -13 -8 -30 3 -30
21 0 18 14 18 29 0z"/>
<path d="M5697 5230 c-72 -7 -91 -20 -82 -55 2 -11 5 -29 5 -39 0 -11 18 -36
40 -57 39 -37 40 -39 19 -50 -12 -6 -51 -11 -86 -10 -42 0 -62 -3 -58 -10 4
-5 2 -16 -4 -23 -35 -42 137 -85 216 -55 27 10 27 11 9 24 -10 8 -22 32 -26
53 -6 36 -5 40 22 50 38 14 62 70 53 123 -4 22 -14 43 -23 47 -10 4 -48 5 -85
2z"/>
<path d="M5494 5210 c-33 -4 -66 -10 -72 -14 -27 -16 -4 -96 42 -151 l34 -39
35 18 c39 22 67 71 67 119 0 31 -24 78 -38 76 -4 -1 -34 -5 -68 -9z"/>
<path d="M2848 4828 c16 -65 77 -101 133 -78 35 15 59 46 59 77 0 31 -26 29
-42 -4 -24 -49 -89 -48 -108 2 -13 33 -51 36 -42 3z"/>
<path d="M3165 4823 c9 -40 46 -73 88 -80 32 -5 41 -1 72 30 39 39 47 77 16
77 -12 0 -21 -9 -25 -25 -10 -38 -48 -52 -82 -30 -14 9 -29 26 -31 36 -3 11
-14 19 -25 19 -17 0 -19 -4 -13 -27z"/>
<path d="M3098 4673 c7 -3 16 -2 19 1 4 3 -2 6 -13 5 -11 0 -14 -3 -6 -6z"/>
<path d="M2935 4500 c-41 -14 56 -32 179 -33 94 -1 129 3 159 16 20 10 37 19
37 21 0 7 -355 3 -375 -4z"/>
<path d="M2867 4376 c-19 -20 -39 -27 -107 -36 -117 -15 -331 -69 -540 -135
-96 -30 -184 -55 -195 -55 -36 0 -497 -79 -614 -105 -62 -13 -123 -22 -136
-19 -36 9 -135 -14 -202 -47 -165 -80 -213 -277 -103 -426 60 -81 184 -110
305 -70 62 20 120 30 350 63 158 22 187 24 240 13 48 -9 79 -9 144 0 46 7 84
11 86 9 12 -14 53 -107 76 -173 l27 -80 1 118 1 117 55 0 c30 0 55 3 55 8 0 4
-15 17 -33 29 -22 15 -60 25 -122 33 -88 11 -138 31 -204 82 -13 10 -34 18
-47 18 -19 0 -26 9 -39 52 -8 28 -15 75 -15 104 0 57 9 68 88 108 31 16 37 16
108 -4 89 -24 124 -25 228 -5 108 21 210 8 391 -47 118 -36 184 -67 243 -115
51 -42 64 -65 56 -98 -4 -18 -17 -28 -45 -36 -37 -11 -42 -10 -96 25 -76 48
-141 81 -148 74 -3 -3 11 -32 30 -64 20 -32 43 -82 51 -110 l15 -51 82 -6 c45
-4 262 -7 482 -7 220 0 451 -3 513 -7 l112 -6 1 -41 c1 -40 1 -40 12 -13 6 15
15 27 20 27 5 0 31 -25 60 -56 28 -31 88 -85 134 -121 46 -35 83 -67 83 -70 0
-3 -18 -22 -41 -42 l-41 -36 154 4 c180 4 280 -10 314 -44 40 -40 42 -136 3
-156 -8 -4 -58 -11 -112 -17 -87 -8 -109 -14 -179 -50 -44 -23 -89 -42 -101
-42 -13 0 -31 -13 -44 -33 l-23 -32 29 -28 c53 -53 242 -60 343 -13 24 11 90
18 233 25 165 7 210 13 255 30 88 34 132 84 151 170 29 136 -67 284 -236 361
-22 10 -69 43 -105 74 -36 31 -162 132 -281 226 -119 94 -248 198 -287 233
-97 84 -304 215 -497 313 -165 83 -273 124 -384 145 -42 8 -71 20 -88 36 -22
23 -28 24 -86 16 -77 -10 -168 -10 -275 0 -79 7 -83 7 -105 -17z"/>
<path d="M3961 2693 c-1 -135 2 -146 36 -125 9 6 8 33 -7 117 -11 61 -22 117
-24 125 -2 8 -4 -45 -5 -117z"/>
<path d="M2166 2496 c-10 -36 -15 -69 -12 -75 4 -5 -8 -19 -24 -31 -24 -17
-28 -25 -20 -35 7 -9 11 -50 9 -107 -1 -51 1 -120 5 -153 7 -51 5 -64 -11 -83
-22 -27 -87 -40 -162 -32 -58 6 -105 -10 -125 -42 -23 -38 16 -66 181 -135
l105 -43 81 34 c68 29 84 32 96 21 11 -11 25 -8 84 16 85 35 337 118 502 164
78 22 162 37 240 44 66 6 149 14 185 17 35 3 67 7 70 9 4 2 44 9 91 15 46 5
100 12 120 15 19 2 58 1 87 -4 32 -5 55 -4 61 2 7 7 8 3 5 -10 -11 -42 105
-59 163 -23 40 24 66 63 65 98 -1 69 -5 80 -26 86 -11 3 -203 6 -425 6 -222 0
-402 2 -400 5 3 2 195 5 427 5 256 1 422 5 422 11 0 5 -343 9 -891 9 l-890 0
7 140 c4 77 5 140 2 140 -3 0 -13 -29 -22 -64z"/>
<path d="M4120 1926 c-19 -7 -134 -60 -255 -118 -121 -58 -329 -156 -463 -218
-179 -84 -240 -116 -232 -125 13 -16 76 -34 146 -41 63 -7 105 -22 111 -40 5
-15 -44 -72 -82 -95 -16 -11 -24 -19 -17 -19 34 0 88 35 142 92 l60 62 80 1
c44 0 80 -3 80 -6 0 -12 -73 -125 -96 -150 l-24 -26 133 -52 c97 -39 141 -51
158 -46 64 19 323 208 414 302 103 105 159 243 135 332 -15 58 -55 74 -184 73
-73 0 -96 2 -87 11 6 6 11 18 11 26 0 8 7 23 17 33 20 22 6 23 -47 4z m-390
-286 c0 -8 -42 -28 -82 -40 -25 -8 -28 -6 -28 15 0 16 8 26 27 32 28 10 83 5
83 -7z"/>
<path d="M1720 1779 c-19 -6 -36 -12 -38 -14 -2 -2 19 -50 47 -108 59 -123
112 -253 188 -462 30 -82 56 -151 58 -153 1 -2 83 33 181 78 l178 81 19 -23
18 -23 -7 25 c-28 104 -223 527 -231 503 -3 -7 1 -21 7 -33 15 -29 5 -40 -38
-40 -42 0 -80 21 -164 90 -94 79 -149 99 -218 79z"/>
<path d="M1621 1603 c-2 -30 185 -500 195 -490 2 2 -25 82 -60 178 -62 170
-134 336 -135 312z"/>
</g>
</svg>
