<?xml version="1.0" standalone="no"?>
<!DOCTYPE svg PUBLIC "-//W3C//DTD SVG 20010904//EN"
 "http://www.w3.org/TR/2001/REC-SVG-20010904/DTD/svg10.dtd">
<svg version="1.0" xmlns="http://www.w3.org/2000/svg"
 width="606.000000pt" height="710.000000pt" viewBox="0 0 606.000000 710.000000"
 preserveAspectRatio="xMidYMid meet">

<g transform="translate(0.000000,710.000000) scale(0.100000,-0.100000)"
fill="#000000" stroke="none">
<path d="M2272 6655 c-58 -41 -112 -193 -112 -316 0 -62 -4 -79 -19 -93 -28
-25 -71 -127 -83 -199 -7 -36 -21 -74 -34 -89 -37 -46 -47 -90 -30 -132 8 -19
24 -41 36 -48 12 -7 31 -30 41 -51 11 -21 25 -37 32 -34 15 5 32 80 52 233 8
67 21 139 29 160 12 35 17 40 57 47 24 4 82 10 129 13 98 6 153 -8 183 -49 18
-24 19 -30 6 -87 -19 -88 -16 -86 -103 -71 -42 7 -86 9 -98 5 -24 -7 -78 -54
-78 -66 0 -13 29 -9 55 8 52 34 93 -25 43 -61 -19 -13 -21 -17 -8 -25 8 -5 25
-7 37 -3 24 5 33 -12 11 -20 -7 -2 -10 -7 -7 -11 14 -15 39 8 55 49 9 24 23
46 30 49 8 3 19 17 24 31 21 55 31 14 28 -114 -3 -100 -7 -133 -21 -154 -17
-26 -18 -26 -110 -20 -101 6 -133 -3 -172 -48 l-20 -24 24 20 24 20 -19 -34
c-10 -18 -36 -51 -56 -72 -42 -43 -36 -54 23 -44 38 7 41 6 34 -14 -5 -17 -1
-21 22 -26 15 -4 46 -15 68 -25 22 -10 60 -27 85 -38 53 -23 65 -36 75 -79 6
-28 4 -33 -13 -33 -15 0 -18 -5 -14 -25 6 -35 -49 -142 -99 -191 l-40 -39
-130 0 c-71 0 -117 -3 -102 -7 15 -3 77 -16 136 -29 128 -26 173 -51 170 -94
-1 -16 -6 -31 -11 -34 -5 -3 -11 -14 -15 -24 -5 -14 -3 -18 11 -15 9 2 23 19
30 38 l13 35 -5 -32 c-5 -28 -2 -33 14 -33 23 0 26 -16 6 -35 -8 -9 -17 -48
-21 -97 -3 -46 -8 -90 -11 -99 -4 -14 11 -17 105 -23 l109 -8 14 -106 c8 -59
13 -109 10 -112 -2 -3 -73 -7 -157 -10 -84 -3 -156 -8 -159 -11 -3 -3 -10 -52
-16 -110 -6 -57 -12 -114 -15 -126 -5 -19 -1 -23 20 -23 21 0 24 -4 20 -27 -6
-34 -35 -243 -35 -254 0 -8 -40 -24 -52 -21 -5 1 -8 -7 -8 -19 0 -11 -4 -17
-10 -14 -5 3 -11 -4 -11 -17 -3 -47 -4 -53 -15 -51 -7 1 -10 -6 -7 -17 3 -12
0 -20 -6 -20 -7 0 -10 -4 -7 -9 3 -5 -1 -14 -9 -21 -7 -6 -12 -17 -9 -24 2 -6
-4 -21 -15 -33 -11 -11 -17 -24 -14 -27 4 -3 1 -6 -6 -6 -7 0 -9 -4 -6 -10 6
-10 -21 -58 -45 -77 -8 -7 -11 -13 -7 -13 4 0 3 -9 -3 -19 -9 -17 -24 -20
-107 -24 -90 -3 -188 -18 -238 -37 -47 -17 475 -49 825 -51 186 0 193 -1 148
-15 -56 -17 -67 -30 -42 -49 17 -12 -13 -14 -221 -15 -395 0 -756 24 -832 56
-33 13 -33 13 -33 -16 0 -33 21 -57 55 -66 14 -3 26 -16 30 -32 4 -15 22 -60
41 -101 33 -72 34 -77 34 -200 0 -69 -3 -191 -7 -270 -5 -123 -8 -141 -20
-125 -10 14 -13 80 -13 300 0 238 -2 283 -15 294 -13 11 -15 -21 -15 -275 l0
-286 -37 31 -38 30 -3 -62 c-1 -35 1 -94 5 -133 8 -66 10 -70 33 -67 43 5 60
30 60 89 0 57 1 58 68 37 9 -2 12 -37 12 -127 0 -68 3 -160 7 -203 l7 -79 12
71 c12 68 15 74 74 134 40 41 66 60 76 56 9 -3 17 -6 20 -6 2 0 11 -15 20 -32
15 -28 18 -85 24 -396 7 -300 10 -366 23 -386 17 -25 55 -35 142 -37 l50 -1
-45 -14 c-34 -11 -88 -14 -212 -12 -136 2 -165 1 -154 -10 7 -7 62 -17 132
-23 180 -17 199 -33 41 -37 -97 -2 -127 -6 -127 -16 0 -15 100 -26 232 -26 43
0 78 -4 78 -9 0 -23 -63 -32 -209 -29 -83 2 -151 0 -151 -5 0 -17 60 -28 175
-34 66 -3 128 -10 138 -15 41 -21 11 -28 -122 -28 -88 0 -142 -4 -146 -11 -4
-6 -5 -12 -3 -15 3 -2 60 -7 127 -11 100 -5 121 -9 116 -20 -3 -8 -5 -17 -5
-19 0 -2 -61 -4 -135 -4 -120 0 -135 -2 -144 -18 -5 -10 -15 -81 -20 -158 -12
-147 -19 -186 -56 -274 -24 -60 -42 -243 -26 -269 13 -20 190 -34 350 -27 114
5 142 10 189 31 l54 25 -5 469 c-2 258 -8 474 -11 480 -4 6 0 23 8 39 13 26
13 31 -1 52 -15 21 -14 43 1 269 13 192 33 583 36 714 0 12 8 17 26 17 54 0
64 15 64 90 l0 70 100 0 c55 0 103 1 108 3 4 1 10 -32 13 -73 3 -41 6 -66 7
-55 2 18 3 18 15 -4 25 -50 37 -37 37 42 0 53 4 78 15 87 33 27 36 3 29 -232
-6 -175 -4 -229 4 -224 7 4 12 18 12 32 0 42 22 117 42 147 15 20 28 27 53 27
29 0 36 -5 53 -42 35 -75 43 -149 55 -532 9 -277 16 -378 26 -389 10 -13 27
-15 97 -10 57 4 84 3 84 -5 0 -13 -53 -52 -72 -52 -8 0 -46 -11 -84 -24 -38
-13 -103 -27 -144 -31 -79 -8 -118 -28 -112 -57 3 -16 6 -16 25 -4 12 8 65 19
117 25 52 5 113 16 136 22 23 7 50 9 60 5 29 -12 -103 -54 -211 -68 -86 -10
-138 -29 -117 -42 6 -3 21 -2 34 2 29 11 178 3 178 -9 0 -5 -38 -9 -84 -9 -84
0 -120 -6 -112 -19 2 -3 72 -5 155 -5 83 1 151 -2 151 -6 0 -14 -86 -24 -202
-24 -101 0 -107 -1 -112 -21 -10 -40 -31 -543 -27 -632 1 -15 109 -48 201 -63
80 -12 420 -13 439 -1 11 7 13 31 9 110 -5 98 -6 102 -52 181 -53 91 -62 127
-77 295 -14 155 -15 220 -5 328 6 72 5 92 -8 112 -14 21 -13 48 4 276 11 140
23 362 26 494 4 132 10 249 14 259 4 12 23 24 46 31 l39 11 5 334 c6 363 8
377 65 434 15 15 25 37 25 53 0 15 10 51 22 80 18 45 19 55 8 83 -7 17 -20 35
-29 39 -14 8 -16 32 -13 194 l3 186 92 -60 c104 -67 172 -95 342 -140 66 -17
161 -43 210 -56 123 -33 276 -41 343 -19 29 9 83 16 125 16 59 0 84 5 123 25
35 18 64 24 104 24 111 -1 136 0 205 10 115 17 159 27 183 40 25 13 44 53 36
74 -5 15 52 27 131 27 23 0 57 3 74 6 l31 6 0 69 c0 37 -3 70 -7 72 -5 2 -66
-2 -138 -9 -266 -27 -898 -73 -1002 -74 -22 0 -23 -4 -23 -80 l0 -80 -34 0
c-19 0 -38 -5 -42 -11 -13 -22 -165 2 -279 44 -22 8 -115 25 -207 38 l-168 22
0 72 0 73 77 8 78 9 9 43 c12 56 75 128 124 142 69 19 228 8 355 -25 21 -6 27
-4 27 8 0 29 -237 89 -339 86 -67 -2 -75 0 -92 22 -10 13 -21 38 -25 54 -3 17
-24 85 -45 153 -131 424 -245 585 -449 638 -41 10 -45 14 -42 38 6 47 -122
194 -198 228 l-30 13 1 160 c1 143 5 185 26 288 3 15 9 27 14 27 5 0 21 18 35
40 23 35 26 47 22 100 -4 52 -9 65 -39 96 -19 19 -34 43 -35 52 -1 9 -2 27 -3
38 0 12 -23 55 -51 97 -27 42 -50 78 -50 80 0 3 10 7 23 11 42 10 77 51 77 90
0 19 -4 38 -10 41 -5 3 -10 28 -10 54 0 36 -5 52 -22 69 -41 37 -77 46 -198
44 l-116 -1 4 35 c5 44 -19 74 -62 74 -42 0 -145 -50 -195 -95 -41 -37 -41
-37 -41 -12 0 87 -70 142 -128 102z m-28 -115 c-21 -38 -40 -68 -42 -65 -8 7
29 104 51 131 36 46 31 8 -9 -66z m291 50 c-3 -5 -12 -10 -18 -10 -7 0 -6 4 3
10 19 12 23 12 15 0z m-100 -288 c-6 -5 -32 -17 -58 -26 -26 -10 -74 -35 -105
-56 -60 -41 -78 -44 -46 -9 27 30 83 64 135 83 48 17 89 21 74 8z m-284 -169
c-12 -20 -14 -14 -5 12 4 9 9 14 11 11 3 -2 0 -13 -6 -23z m-14 -45 c-3 -8 -6
-5 -6 6 -1 11 2 17 5 13 3 -3 4 -12 1 -19z m-10 -50 c-3 -7 -5 -2 -5 12 0 14
2 19 5 13 2 -7 2 -19 0 -25z m-10 -90 c-2 -13 -4 -3 -4 22 0 25 2 35 4 23 2
-13 2 -33 0 -45z m575 -89 c-1 -13 -8 -27 -15 -31 -9 -6 -9 -12 1 -28 20 -33
-13 -25 -37 9 -27 38 -26 47 7 65 35 19 48 15 44 -15z m-643 -37 c0 -24 -1
-25 -9 -7 -12 28 -12 47 0 40 6 -3 10 -18 9 -33z m511 -641 c0 -25 44 -105 87
-158 42 -51 38 -64 -9 -35 -62 38 -121 144 -110 195 5 23 32 22 32 -2z m392
-786 c3 -114 -7 -137 -23 -53 -10 52 -12 152 -2 161 17 18 22 -2 25 -108z
m1458 -788 c0 -21 -11 -27 -31 -16 -27 14 -23 29 6 29 14 0 25 -6 25 -13z
m-2640 -593 c39 -104 86 -181 154 -249 l61 -60 -3 -187 -2 -188 -35 0 -35 0 0
214 0 215 -30 21 -30 21 0 -236 0 -236 -27 3 -28 3 -5 270 -5 270 -38 77 c-20
43 -40 92 -44 109 -5 28 -4 30 18 27 19 -2 28 -16 49 -74z m181 47 c11 -12 69
-251 69 -286 0 -41 -2 -41 -44 -16 -52 33 -104 108 -147 217 -43 107 -43 107
44 98 39 -3 75 -9 78 -13z m198 -17 c10 -9 41 -247 41 -314 0 -103 -6 -121
-36 -114 l-24 6 0 -146 0 -146 -35 0 -35 0 0 166 c0 96 4 163 9 160 12 -8 31
48 31 89 0 18 -11 87 -25 155 -35 170 -35 164 23 155 26 -4 49 -9 51 -11z
m251 -21 c2 -2 6 -88 8 -191 l4 -187 -29 -18 c-15 -9 -41 -26 -58 -36 l-30
-20 0 132 c0 73 -4 179 -9 235 l-9 104 59 -7 c32 -4 61 -9 64 -12z m229 -40
l43 -16 -6 -55 c-6 -52 -11 -60 -59 -103 -34 -31 -55 -43 -59 -35 -4 6 -8 62
-8 124 0 128 -9 120 89 85z m391 -528 l0 -125 -35 0 -35 0 0 103 c0 132 4 147
41 147 l29 0 0 -125z m-140 -10 l0 -115 -29 0 c-17 0 -33 5 -36 11 -4 6 -4 55
0 109 7 101 9 105 53 109 9 1 12 -28 12 -114z m248 -39 c8 -50 7 -58 -9 -67
-18 -9 -19 -4 -19 73 1 93 13 90 28 -6z m-1208 -1456 c0 -12 -45 -24 -59 -15
-22 13 -10 25 24 25 19 0 35 -4 35 -10z m-31 -124 c6 -7 14 -40 17 -73 6 -57
5 -61 -21 -82 -38 -29 -51 -15 -48 58 4 91 24 130 52 97z m1096 -428 c5 -21 3
-28 -7 -28 -15 0 -48 60 -48 88 0 25 47 -26 55 -60z m-1176 6 c12 -15 21 -32
21 -39 0 -19 -38 -48 -54 -42 -31 12 -33 107 -2 107 8 0 24 -12 35 -26z"/>
<path d="M2043 5675 c0 -27 2 -38 4 -22 2 15 2 37 0 50 -2 12 -4 0 -4 -28z"/>
<path d="M5509 4899 c18 -11 35 -18 38 -15 5 5 -50 36 -64 36 -4 0 7 -9 26
-21z"/>
<path d="M2347 4673 c4 -9 2 -14 -3 -11 -5 4 -10 -10 -12 -29 -1 -19 -7 -44
-13 -55 -9 -16 -8 -19 2 -13 8 6 10 4 3 -6 -4 -8 -9 -27 -9 -44 -1 -16 -6 -29
-12 -28 -6 1 -10 -12 -8 -32 1 -19 -2 -35 -7 -35 -5 0 -7 -4 -4 -8 3 -5 -1 -9
-9 -9 -8 0 -12 4 -9 9 9 15 -47 79 -82 94 -55 23 -64 13 -64 -77 0 -158 -30
-223 -110 -238 l-45 -9 58 -1 c92 -2 160 38 203 119 14 26 25 34 41 32 26 -4
43 35 22 49 -10 6 -11 9 -1 9 6 0 12 8 12 18 0 13 2 14 9 4 5 -9 8 -4 7 16 -1
17 -4 28 -8 25 -14 -8 -8 14 6 27 8 6 13 17 10 25 -3 7 -1 16 5 20 6 3 11 0
11 -7 0 -9 4 -8 14 2 9 9 15 39 16 75 3 86 2 95 -15 95 -9 0 -12 -6 -8 -17z
m-66 -326 c-10 -9 -11 -8 -5 6 3 10 9 15 12 12 3 -3 0 -11 -7 -18z"/>
<path d="M4808 4603 c-9 -10 -19 -40 -22 -68 -4 -27 -9 -66 -12 -85 -3 -29 32
59 61 151 8 24 -7 25 -27 2z"/>
<path d="M1689 4534 c-56 -66 -152 -201 -184 -259 -6 -11 -24 -42 -40 -70 -84
-148 -164 -345 -175 -431 -5 -39 -18 -104 -29 -145 -43 -159 -55 -281 -47
-474 3 -88 8 -173 11 -190 3 -16 7 -44 10 -61 4 -24 -1 -36 -26 -60 -17 -16
-40 -42 -52 -58 l-21 -29 100 6 c67 4 93 2 82 -4 -16 -9 -18 -26 -18 -122 0
-120 -6 -137 -47 -137 -43 0 -23 -19 32 -30 62 -13 103 -7 149 21 17 10 41 19
53 19 12 0 23 5 25 12 2 6 20 17 39 23 31 11 34 16 37 53 2 23 -4 83 -13 134
-13 76 -14 101 -4 139 10 38 9 66 -4 150 -19 125 -31 289 -20 272 9 -13 151
-39 160 -29 4 3 -3 6 -15 6 -30 0 -56 28 -41 46 9 11 7 18 -10 31 -18 15 -23
35 -32 128 -15 165 5 420 67 818 38 245 39 271 13 241z m-94 -966 c0 -180 0
-181 -25 -208 l-25 -27 6 76 c4 42 10 119 14 171 6 81 21 170 28 170 1 0 2
-82 2 -182z"/>
<path d="M4610 4472 l-23 -19 69 -27 c38 -16 76 -31 84 -34 8 -3 -6 12 -30 33
-81 71 -75 68 -100 47z"/>
<path d="M5163 4376 c-10 -12 -42 -73 -72 -134 -69 -139 -68 -143 54 -195 82
-36 88 -37 111 -22 30 20 134 224 134 264 0 35 -1 36 -99 78 -89 39 -104 40
-128 9z m27 -207 c0 -20 -21 -49 -36 -49 -20 0 -29 27 -14 45 14 17 50 20 50
4z"/>
<path d="M2268 4313 c7 -3 16 -2 19 1 4 3 -2 6 -13 5 -11 0 -14 -3 -6 -6z"/>
<path d="M1435 2336 c-3 -9 -7 -22 -9 -29 -2 -7 2 -57 9 -112 13 -98 33 -172
61 -227 8 -16 10 -28 5 -28 -12 0 -56 60 -86 117 -29 56 -31 48 -9 -28 15 -52
50 -100 86 -120 22 -12 83 15 104 46 15 23 15 27 -4 62 -67 124 -74 144 -81
236 l-6 92 -33 3 c-22 2 -34 -1 -37 -12z"/>
<path d="M1336 2046 c8 -45 48 -122 69 -130 16 -6 45 2 45 13 0 3 -18 23 -40
43 -21 21 -48 55 -60 75 l-20 38 6 -39z"/>
<path d="M1286 2014 c3 -16 7 -38 8 -49 2 -13 12 -21 29 -23 35 -4 34 4 -8 57
-33 42 -35 42 -29 15z"/>
<path d="M2802 1210 c0 -14 2 -19 5 -12 2 6 2 18 0 25 -3 6 -5 1 -5 -13z"/>
</g>
</svg>
